<?xml version="1.0" standalone="no"?><!DOCTYPE svg PUBLIC "-//W3C//DTD SVG 1.1//EN" "http://www.w3.org/Graphics/SVG/1.1/DTD/svg11.dtd"><svg t="1589641857620" class="icon" viewBox="0 0 1024 1024" version="1.1" xmlns="http://www.w3.org/2000/svg" p-id="11736" xmlns:xlink="http://www.w3.org/1999/xlink" width="200" height="200"><defs><style type="text/css"></style></defs><path d="M256 426.666667c-47.146667 0-85.333333 38.186667-85.333333 85.333333s38.186667 85.333333 85.333333 85.333333 85.333333-38.186667 85.333333-85.333333-38.186667-85.333333-85.333333-85.333333z m512 0c-47.146667 0-85.333333 38.186667-85.333333 85.333333s38.186667 85.333333 85.333333 85.333333 85.333333-38.186667 85.333333-85.333333-38.186667-85.333333-85.333333-85.333333z m-256 0c-47.146667 0-85.333333 38.186667-85.333333 85.333333s38.186667 85.333333 85.333333 85.333333 85.333333-38.186667 85.333333-85.333333-38.186667-85.333333-85.333333-85.333333z" fill="#909090" p-id="11737"></path></svg>