<?xml version="1.0" standalone="no"?><!DOCTYPE svg PUBLIC "-//W3C//DTD SVG 1.1//EN" "http://www.w3.org/Graphics/SVG/1.1/DTD/svg11.dtd"><svg t="1589647943300" class="icon" viewBox="0 0 1024 1024" version="1.1" xmlns="http://www.w3.org/2000/svg" p-id="11426" xmlns:xlink="http://www.w3.org/1999/xlink" width="200" height="200"><defs><style type="text/css"></style></defs><path d="M853.333333 370.56V170.666667h-199.893333L512 29.226667 370.56 170.666667H170.666667v199.893333L29.226667 512 170.666667 653.44V853.333333h199.893333L512 994.773333 653.44 853.333333H853.333333v-199.893333L994.773333 512 853.333333 370.56zM512 768c-38.186667 0-74.24-8.533333-106.666667-23.466667 88.106667-40.533333 149.333333-129.28 149.333334-232.533333s-61.226667-192-149.333334-232.533333c32.426667-14.933333 68.48-23.466667 106.666667-23.466667 141.44 0 256 114.56 256 256s-114.56 256-256 256z" fill="#909090" p-id="11427"></path></svg>