<?xml version="1.0" standalone="no"?><!DOCTYPE svg PUBLIC "-//W3C//DTD SVG 1.1//EN" "http://www.w3.org/Graphics/SVG/1.1/DTD/svg11.dtd"><svg t="1589647808142" class="icon" viewBox="0 0 1024 1024" version="1.1" xmlns="http://www.w3.org/2000/svg" p-id="10936" xmlns:xlink="http://www.w3.org/1999/xlink" width="200" height="200"><defs><style type="text/css"></style></defs><path d="M512 85.333333C276.266667 85.333333 85.333333 276.266667 85.333333 512s190.933333 426.666667 426.666667 426.666667 426.666667-190.933333 426.666667-426.666667S747.733333 85.333333 512 85.333333z m-42.666667 765.013334C301.013333 829.44 170.666667 686.08 170.666667 512c0-26.24 3.2-51.84 8.96-76.373333L384 640v42.666667c0 47.146667 38.186667 85.333333 85.333333 85.333333v82.346667z m294.186667-108.16A84.778667 84.778667 0 0 0 682.666667 682.666667h-42.666667v-128c0-23.466667-19.2-42.666667-42.666667-42.666667H341.333333v-85.333333h85.333334c23.466667 0 42.666667-19.2 42.666666-42.666667v-85.333333h85.333334c47.146667 0 85.333333-38.186667 85.333333-85.333334v-17.706666c125.013333 50.56 213.333333 173.013333 213.333333 316.373333 0 88.746667-34.133333 169.386667-89.813333 230.186667z" fill="#909090" p-id="10937"></path></svg>