<?xml version="1.0" standalone="no"?><!DOCTYPE svg PUBLIC "-//W3C//DTD SVG 1.1//EN" "http://www.w3.org/Graphics/SVG/1.1/DTD/svg11.dtd"><svg t="1589644404876" class="icon" viewBox="0 0 1024 1024" version="1.1" xmlns="http://www.w3.org/2000/svg" p-id="11272" xmlns:xlink="http://www.w3.org/1999/xlink" width="200" height="200"><defs><style type="text/css"></style></defs><path d="M512.213333 234.666667L426.666667 341.333333h170.666666l-85.12-106.666666zM768 426.666667v170.666666l106.666667-85.12L768 426.666667z m-512 0l-106.666667 85.546666L256 597.333333v-170.666666z m341.333333 256h-170.666666l85.546666 106.666666L597.333333 682.666667zM896 128H128c-47.146667 0-85.333333 38.186667-85.333333 85.333333v597.333334c0 47.146667 38.186667 85.333333 85.333333 85.333333h768c47.146667 0 85.333333-38.186667 85.333333-85.333333V213.333333c0-47.146667-38.186667-85.333333-85.333333-85.333333z m0 683.306667H128V212.693333h768v598.613334z" fill="#909090" p-id="11273"></path></svg>